<svg width="156" height="99" viewBox="0 0 156 99" fill="none" xmlns="http://www.w3.org/2000/svg">
<path d="M19.5768 1.09091V52H13.412V7.55398H13.1137L0.684748 15.8068V9.54261L13.412 1.09091H19.5768ZM50.8232 52.696C47.078 52.696 43.8879 51.6768 41.2529 49.6385C38.618 47.5836 36.6045 44.6089 35.2124 40.7145C33.8204 36.8035 33.1244 32.0805 33.1244 26.5455C33.1244 21.0436 33.8204 16.3454 35.2124 12.451C36.6211 8.54001 38.6428 5.55705 41.2778 3.50213C43.9293 1.43063 47.1111 0.394884 50.8232 0.394884C54.5354 0.394884 57.7089 1.43063 60.3438 3.50213C62.9954 5.55705 65.0171 8.54001 66.4092 12.451C67.8178 16.3454 68.5221 21.0436 68.5221 26.5455C68.5221 32.0805 67.8261 36.8035 66.434 40.7145C65.042 44.6089 63.0285 47.5836 60.3936 49.6385C57.7586 51.6768 54.5685 52.696 50.8232 52.696ZM50.8232 47.2273C54.5354 47.2273 57.4189 45.4375 59.4738 41.858C61.5287 38.2784 62.5562 33.1742 62.5562 26.5455C62.5562 22.1373 62.0839 18.3838 61.1393 15.2848C60.2113 12.1858 58.8689 9.82434 57.1123 8.20028C55.3722 6.57623 53.2759 5.7642 50.8232 5.7642C47.1443 5.7642 44.269 7.57883 42.1975 11.2081C40.126 14.8208 39.0903 19.9332 39.0903 26.5455C39.0903 30.9536 39.5543 34.6989 40.4823 37.7812C41.4104 40.8636 42.7444 43.2086 44.4845 44.8161C46.2411 46.4235 48.354 47.2273 50.8232 47.2273ZM94.5732 52.696C90.828 52.696 87.6379 51.6768 85.0029 49.6385C82.368 47.5836 80.3545 44.6089 78.9624 40.7145C77.5704 36.8035 76.8744 32.0805 76.8744 26.5455C76.8744 21.0436 77.5704 16.3454 78.9624 12.451C80.3711 8.54001 82.3928 5.55705 85.0278 3.50213C87.6793 1.43063 90.8611 0.394884 94.5732 0.394884C98.2854 0.394884 101.459 1.43063 104.094 3.50213C106.745 5.55705 108.767 8.54001 110.159 12.451C111.568 16.3454 112.272 21.0436 112.272 26.5455C112.272 32.0805 111.576 36.8035 110.184 40.7145C108.792 44.6089 106.778 47.5836 104.144 49.6385C101.509 51.6768 98.3185 52.696 94.5732 52.696ZM94.5732 47.2273C98.2854 47.2273 101.169 45.4375 103.224 41.858C105.279 38.2784 106.306 33.1742 106.306 26.5455C106.306 22.1373 105.834 18.3838 104.889 15.2848C103.961 12.1858 102.619 9.82434 100.862 8.20028C99.1222 6.57623 97.0259 5.7642 94.5732 5.7642C90.8943 5.7642 88.019 7.57883 85.9475 11.2081C83.876 14.8208 82.8403 19.9332 82.8403 26.5455C82.8403 30.9536 83.3043 34.6989 84.2323 37.7812C85.1604 40.8636 86.4944 43.2086 88.2345 44.8161C89.9911 46.4235 92.104 47.2273 94.5732 47.2273ZM136.732 43.0511V10.2386H142.301V43.0511H136.732ZM123.11 29.429V23.8608H155.923V29.429H123.11ZM20.2549 78H22.1924V88.5937C22.1924 89.6875 21.9346 90.6641 21.4189 91.5234C20.9085 92.3776 20.1872 93.0521 19.2549 93.5469C18.3226 94.0365 17.2288 94.2813 15.9736 94.2813C14.7184 94.2813 13.6247 94.0365 12.6924 93.5469C11.7601 93.0521 11.0361 92.3776 10.5205 91.5234C10.0101 90.6641 9.75488 89.6875 9.75488 88.5937V78H11.6924V88.4375C11.6924 89.2187 11.8643 89.9141 12.208 90.5234C12.5518 91.1276 13.0413 91.6042 13.6768 91.9531C14.3174 92.2969 15.083 92.4687 15.9736 92.4687C16.8643 92.4687 17.6299 92.2969 18.2705 91.9531C18.9111 91.6042 19.4007 91.1276 19.7393 90.5234C20.083 89.9141 20.2549 89.2187 20.2549 88.4375V78ZM27.6553 86.7812V94H25.8115V82H27.5928V83.875H27.749C28.0303 83.2656 28.4574 82.776 29.0303 82.4063C29.6032 82.0313 30.3428 81.8438 31.249 81.8438C32.0615 81.8438 32.7725 82.0104 33.3818 82.3437C33.9912 82.6719 34.4652 83.1719 34.8037 83.8437C35.1423 84.5104 35.3115 85.3542 35.3115 86.375V94H33.4678V86.5C33.4678 85.5573 33.223 84.8229 32.7334 84.2969C32.2438 83.7656 31.5719 83.5 30.7178 83.5C30.1292 83.5 29.6032 83.6276 29.1396 83.8828C28.6813 84.138 28.3193 84.5104 28.0537 85C27.7881 85.4896 27.6553 86.0833 27.6553 86.7812ZM38.6807 94V82H40.5244V94H38.6807ZM39.6182 80C39.2588 80 38.9489 79.8776 38.6885 79.6328C38.4333 79.388 38.3057 79.0938 38.3057 78.75C38.3057 78.4063 38.4333 78.112 38.6885 77.8672C38.9489 77.6224 39.2588 77.5 39.6182 77.5C39.9775 77.5 40.2848 77.6224 40.54 77.8672C40.8005 78.112 40.9307 78.4063 40.9307 78.75C40.9307 79.0938 40.8005 79.388 40.54 79.6328C40.2848 79.8776 39.9775 80 39.6182 80ZM52.0889 98.5V92.1562H51.9326C51.7972 92.375 51.6045 92.651 51.3545 92.9844C51.1045 93.3125 50.7477 93.6068 50.2842 93.8672C49.8206 94.1224 49.2035 94.25 48.4326 94.25C47.4326 94.25 46.5498 93.9974 45.7842 93.4922C45.0186 92.9818 44.4196 92.263 43.9873 91.3359C43.555 90.4036 43.3389 89.3021 43.3389 88.0313C43.3389 86.7708 43.555 85.6771 43.9873 84.75C44.4196 83.8229 45.0212 83.1068 45.792 82.6016C46.5628 82.0964 47.4535 81.8438 48.4639 81.8438C49.2451 81.8438 49.8623 81.974 50.3154 82.2344C50.7738 82.4896 51.1227 82.7812 51.3623 83.1094C51.6071 83.4323 51.7972 83.6979 51.9326 83.9062H52.1514V82H53.9326V98.5H52.0889ZM48.6826 92.5938C49.4222 92.5938 50.0472 92.401 50.5576 92.0156C51.068 91.625 51.4561 91.0859 51.7217 90.3984C51.9873 89.7057 52.1201 88.9062 52.1201 88C52.1201 87.1042 51.9899 86.3203 51.7295 85.6484C51.4691 84.9714 51.0837 84.4453 50.5732 84.0703C50.0628 83.6901 49.4326 83.5 48.6826 83.5C47.9014 83.5 47.2503 83.7005 46.7295 84.1016C46.2139 84.4974 45.8258 85.0365 45.5654 85.7187C45.3102 86.3958 45.1826 87.1562 45.1826 88C45.1826 88.8542 45.3128 89.6302 45.5732 90.3281C45.8389 91.0208 46.2295 91.5729 46.7451 91.9844C47.266 92.3906 47.9118 92.5938 48.6826 92.5938ZM64.8701 89.0937V82H66.7139V94H64.8701V91.9687H64.7451C64.4639 92.5781 64.0264 93.0964 63.4326 93.5234C62.8389 93.9453 62.0889 94.1563 61.1826 94.1563C60.4326 94.1563 59.766 93.9922 59.1826 93.6641C58.5993 93.3307 58.141 92.8307 57.8076 92.1641C57.4743 91.4922 57.3076 90.6458 57.3076 89.625V82H59.1514V89.5C59.1514 90.375 59.3962 91.0729 59.8857 91.5938C60.3805 92.1146 61.0107 92.375 61.7764 92.375C62.2347 92.375 62.7008 92.2578 63.1748 92.0234C63.654 91.7891 64.055 91.4297 64.3779 90.9453C64.7061 90.4609 64.8701 89.8437 64.8701 89.0937ZM75.1221 94.25C73.9658 94.25 72.9684 93.9948 72.1299 93.4844C71.2965 92.9688 70.6533 92.25 70.2002 91.3281C69.7523 90.401 69.5283 89.3229 69.5283 88.0938C69.5283 86.8646 69.7523 85.7812 70.2002 84.8437C70.6533 83.901 71.2835 83.1667 72.0908 82.6406C72.9033 82.1094 73.8512 81.8438 74.9346 81.8438C75.5596 81.8438 76.1768 81.9479 76.7861 82.1562C77.3955 82.3646 77.9502 82.7031 78.4502 83.1719C78.9502 83.6354 79.3486 84.25 79.6455 85.0156C79.9424 85.7812 80.0908 86.724 80.0908 87.8437V88.625H70.8408V87.0312H78.2158C78.2158 86.3542 78.0804 85.75 77.8096 85.2187C77.5439 84.6875 77.1637 84.2682 76.6689 83.9609C76.1794 83.6536 75.6012 83.5 74.9346 83.5C74.2002 83.5 73.5648 83.6823 73.0283 84.0469C72.4971 84.4062 72.0882 84.875 71.8018 85.4531C71.5153 86.0312 71.3721 86.651 71.3721 87.3125V88.375C71.3721 89.2813 71.5283 90.0495 71.8408 90.6797C72.1585 91.3047 72.5986 91.7812 73.1611 92.1094C73.7236 92.4323 74.3773 92.5938 75.1221 92.5938C75.6064 92.5938 76.0439 92.526 76.4346 92.3906C76.8304 92.25 77.1715 92.0417 77.458 91.7656C77.7445 91.4844 77.9658 91.1354 78.1221 90.7187L79.9033 91.2188C79.7158 91.8229 79.4007 92.3542 78.958 92.8125C78.5153 93.2656 77.9684 93.6198 77.3174 93.875C76.6663 94.125 75.9346 94.25 75.1221 94.25ZM98.083 82C97.9893 81.2083 97.609 80.5938 96.9424 80.1562C96.2757 79.7187 95.458 79.5 94.4893 79.5C93.7809 79.5 93.1611 79.6146 92.6299 79.8437C92.1038 80.0729 91.6924 80.388 91.3955 80.7891C91.1038 81.1901 90.958 81.6458 90.958 82.1562C90.958 82.5833 91.0596 82.9505 91.2627 83.2578C91.471 83.5599 91.7367 83.8125 92.0596 84.0156C92.3825 84.2135 92.721 84.3776 93.0752 84.5078C93.4294 84.6328 93.7549 84.7344 94.0518 84.8125L95.6768 85.25C96.0934 85.3594 96.557 85.5104 97.0674 85.7031C97.583 85.8958 98.0752 86.1589 98.5439 86.4922C99.0179 86.8203 99.4085 87.2422 99.7158 87.7578C100.023 88.2734 100.177 88.9062 100.177 89.6562C100.177 90.5208 99.9502 91.3021 99.4971 92C99.0492 92.6979 98.3929 93.2526 97.5283 93.6641C96.6689 94.0755 95.6247 94.2813 94.3955 94.2813C93.2497 94.2813 92.2575 94.0964 91.4189 93.7266C90.5856 93.3568 89.9294 92.8411 89.4502 92.1797C88.9762 91.5182 88.708 90.75 88.6455 89.875H90.6455C90.6976 90.4792 90.9007 90.9792 91.2549 91.375C91.6143 91.7656 92.0674 92.0573 92.6143 92.25C93.1663 92.4375 93.7601 92.5312 94.3955 92.5312C95.1351 92.5312 95.7992 92.4115 96.3877 92.1719C96.9762 91.9271 97.4424 91.5885 97.7861 91.1562C98.1299 90.7187 98.3018 90.2083 98.3018 89.625C98.3018 89.0937 98.1533 88.6615 97.8564 88.3281C97.5596 87.9948 97.1689 87.724 96.6846 87.5156C96.2002 87.3073 95.6768 87.125 95.1143 86.9687L93.1455 86.4062C91.8955 86.0469 90.9059 85.5339 90.1768 84.8672C89.4476 84.2005 89.083 83.3281 89.083 82.25C89.083 81.3542 89.3252 80.5729 89.8096 79.9062C90.2992 79.2344 90.9554 78.7135 91.7783 78.3437C92.6064 77.9687 93.5309 77.7812 94.5518 77.7812C95.583 77.7812 96.4997 77.9661 97.3018 78.3359C98.1038 78.7005 98.7393 79.2005 99.208 79.8359C99.682 80.4714 99.932 81.1927 99.958 82H98.083ZM108.331 82V83.5625H102.112V82H108.331ZM103.925 79.125H105.769V90.5625C105.769 91.0833 105.844 91.474 105.995 91.7344C106.151 91.9896 106.349 92.1615 106.589 92.25C106.834 92.3333 107.091 92.375 107.362 92.375C107.565 92.375 107.732 92.3646 107.862 92.3437C107.993 92.3177 108.097 92.2969 108.175 92.2812L108.55 93.9375C108.425 93.9844 108.25 94.0313 108.026 94.0781C107.802 94.1302 107.519 94.1563 107.175 94.1563C106.654 94.1563 106.144 94.0443 105.644 93.8203C105.149 93.5964 104.737 93.2552 104.409 92.7969C104.086 92.3385 103.925 91.7604 103.925 91.0625V79.125ZM112.292 98.5C111.979 98.5 111.701 98.474 111.456 98.4219C111.211 98.375 111.042 98.3281 110.948 98.2813L111.417 96.6563C111.865 96.7708 112.261 96.8125 112.604 96.7812C112.948 96.75 113.253 96.5964 113.519 96.3203C113.789 96.0495 114.037 95.6094 114.261 95L114.604 94.0625L110.167 82H112.167L115.479 91.5625H115.604L118.917 82H120.917L115.823 95.75C115.594 96.3698 115.31 96.8828 114.972 97.2891C114.633 97.7005 114.24 98.0052 113.792 98.2031C113.349 98.401 112.849 98.5 112.292 98.5ZM125.194 78V94H123.351V78H125.194ZM133.603 94.25C132.446 94.25 131.449 93.9948 130.61 93.4844C129.777 92.9688 129.134 92.25 128.681 91.3281C128.233 90.401 128.009 89.3229 128.009 88.0938C128.009 86.8646 128.233 85.7812 128.681 84.8437C129.134 83.901 129.764 83.1667 130.571 82.6406C131.384 82.1094 132.332 81.8438 133.415 81.8438C134.04 81.8438 134.657 81.9479 135.267 82.1562C135.876 82.3646 136.431 82.7031 136.931 83.1719C137.431 83.6354 137.829 84.25 138.126 85.0156C138.423 85.7812 138.571 86.724 138.571 87.8437V88.625H129.321V87.0312H136.696C136.696 86.3542 136.561 85.75 136.29 85.2187C136.024 84.6875 135.644 84.2682 135.149 83.9609C134.66 83.6536 134.082 83.5 133.415 83.5C132.681 83.5 132.045 83.6823 131.509 84.0469C130.978 84.4062 130.569 84.875 130.282 85.4531C129.996 86.0312 129.853 86.651 129.853 87.3125V88.375C129.853 89.2813 130.009 90.0495 130.321 90.6797C130.639 91.3047 131.079 91.7812 131.642 92.1094C132.204 92.4323 132.858 92.5938 133.603 92.5938C134.087 92.5938 134.524 92.526 134.915 92.3906C135.311 92.25 135.652 92.0417 135.938 91.7656C136.225 91.4844 136.446 91.1354 136.603 90.7187L138.384 91.2188C138.196 91.8229 137.881 92.3542 137.438 92.8125C136.996 93.2656 136.449 93.6198 135.798 93.875C135.147 94.125 134.415 94.25 133.603 94.25ZM149.876 84.6875L148.22 85.1562C148.116 84.8802 147.962 84.612 147.759 84.3516C147.561 84.0859 147.29 83.8672 146.946 83.6953C146.603 83.5234 146.162 83.4375 145.626 83.4375C144.892 83.4375 144.28 83.6068 143.79 83.9453C143.306 84.2786 143.063 84.7031 143.063 85.2187C143.063 85.6771 143.23 86.0391 143.563 86.3047C143.897 86.5703 144.418 86.7917 145.126 86.9687L146.907 87.4063C147.98 87.6667 148.78 88.0651 149.306 88.6016C149.832 89.1328 150.095 89.8177 150.095 90.6562C150.095 91.3437 149.897 91.9583 149.501 92.5C149.11 93.0417 148.563 93.4688 147.86 93.7813C147.157 94.0938 146.34 94.25 145.407 94.25C144.183 94.25 143.17 93.9844 142.368 93.4531C141.566 92.9219 141.058 92.1458 140.845 91.125L142.595 90.6875C142.761 91.3333 143.076 91.8177 143.54 92.1406C144.009 92.4635 144.621 92.625 145.376 92.625C146.235 92.625 146.918 92.4427 147.423 92.0781C147.933 91.7083 148.188 91.2656 148.188 90.75C148.188 90.3333 148.043 89.9844 147.751 89.7031C147.459 89.4167 147.011 89.2031 146.407 89.0625L144.407 88.5937C143.308 88.3333 142.501 87.9297 141.985 87.3828C141.475 86.8307 141.22 86.1406 141.22 85.3125C141.22 84.6354 141.41 84.0365 141.79 83.5156C142.175 82.9948 142.699 82.5859 143.36 82.2891C144.027 81.9922 144.782 81.8438 145.626 81.8438C146.813 81.8438 147.746 82.1042 148.423 82.625C149.105 83.1458 149.59 83.8333 149.876 84.6875Z" fill="#545454"/>
</svg>
