<svg width="177" height="99" viewBox="0 0 177 99" fill="none" xmlns="http://www.w3.org/2000/svg">
<path d="M2.79936 41.5597V36.4886L25.1715 1.09091H28.8505V8.94602H26.3647L9.46129 35.6932V36.0909H39.5891V41.5597H2.79936ZM26.7624 52V40.0185V37.657V1.09091H32.6289V52H26.7624ZM65.5098 52.696C61.7645 52.696 58.5744 51.6768 55.9395 49.6385C53.3045 47.5836 51.291 44.6089 49.899 40.7145C48.5069 36.8035 47.8109 32.0805 47.8109 26.5455C47.8109 21.0436 48.5069 16.3454 49.899 12.451C51.3076 8.54001 53.3294 5.55705 55.9643 3.50213C58.6158 1.43063 61.7976 0.394884 65.5098 0.394884C69.2219 0.394884 72.3954 1.43063 75.0304 3.50213C77.6819 5.55705 79.7037 8.54001 81.0957 12.451C82.5043 16.3454 83.2086 21.0436 83.2086 26.5455C83.2086 32.0805 82.5126 36.8035 81.1206 40.7145C79.7285 44.6089 77.715 47.5836 75.0801 49.6385C72.4451 51.6768 69.255 52.696 65.5098 52.696ZM65.5098 47.2273C69.2219 47.2273 72.1054 45.4375 74.1603 41.858C76.2153 38.2784 77.2427 33.1742 77.2427 26.5455C77.2427 22.1373 76.7704 18.3838 75.8258 15.2848C74.8978 12.1858 73.5555 9.82434 71.7988 8.20028C70.0588 6.57623 67.9624 5.7642 65.5098 5.7642C61.8308 5.7642 58.9556 7.57883 56.8841 11.2081C54.8126 14.8208 53.7768 19.9332 53.7768 26.5455C53.7768 30.9536 54.2408 34.6989 55.1689 37.7812C56.0969 40.8636 57.4309 43.2086 59.171 44.8161C60.9276 46.4235 63.0405 47.2273 65.5098 47.2273ZM109.26 52.696C105.515 52.696 102.324 51.6768 99.6895 49.6385C97.0545 47.5836 95.041 44.6089 93.649 40.7145C92.2569 36.8035 91.5609 32.0805 91.5609 26.5455C91.5609 21.0436 92.2569 16.3454 93.649 12.451C95.0576 8.54001 97.0794 5.55705 99.7143 3.50213C102.366 1.43063 105.548 0.394884 109.26 0.394884C112.972 0.394884 116.145 1.43063 118.78 3.50213C121.432 5.55705 123.454 8.54001 124.846 12.451C126.254 16.3454 126.959 21.0436 126.959 26.5455C126.959 32.0805 126.263 36.8035 124.871 40.7145C123.479 44.6089 121.465 47.5836 118.83 49.6385C116.195 51.6768 113.005 52.696 109.26 52.696ZM109.26 47.2273C112.972 47.2273 115.855 45.4375 117.91 41.858C119.965 38.2784 120.993 33.1742 120.993 26.5455C120.993 22.1373 120.52 18.3838 119.576 15.2848C118.648 12.1858 117.305 9.82434 115.549 8.20028C113.809 6.57623 111.712 5.7642 109.26 5.7642C105.581 5.7642 102.706 7.57883 100.634 11.2081C98.5626 14.8208 97.5268 19.9332 97.5268 26.5455C97.5268 30.9536 97.9908 34.6989 98.9189 37.7812C99.8469 40.8636 101.181 43.2086 102.921 44.8161C104.678 46.4235 106.791 47.2273 109.26 47.2273ZM151.419 43.0511V10.2386H156.987V43.0511H151.419ZM137.797 29.429V23.8608H170.609V29.429H137.797ZM0.0576173 94V78H5.46387C6.71908 78 7.74512 78.2266 8.54199 78.6797C9.34408 79.1276 9.93783 79.7344 10.3232 80.5C10.7087 81.2656 10.9014 82.1198 10.9014 83.0625C10.9014 84.0052 10.7087 84.862 10.3232 85.6328C9.94303 86.4036 9.35449 87.0182 8.55762 87.4766C7.76074 87.9297 6.73991 88.1562 5.49512 88.1562H1.62012V86.4375H5.43262C6.29199 86.4375 6.9821 86.2891 7.50293 85.9922C8.02376 85.6953 8.40137 85.2943 8.63574 84.7891C8.87533 84.2786 8.99512 83.7031 8.99512 83.0625C8.99512 82.4219 8.87533 81.849 8.63574 81.3437C8.40137 80.8385 8.02116 80.4427 7.49512 80.1562C6.96908 79.8646 6.27116 79.7187 5.40137 79.7187H1.99512V94H0.0576173ZM13.7725 94V82H15.5537V83.8125H15.6787C15.8975 83.2188 16.2933 82.737 16.8662 82.3672C17.4391 81.9974 18.085 81.8125 18.8037 81.8125C18.9391 81.8125 19.1084 81.8151 19.3115 81.8203C19.5146 81.8255 19.6683 81.8333 19.7725 81.8438V83.7187C19.71 83.7031 19.5667 83.6797 19.3428 83.6484C19.124 83.612 18.8923 83.5937 18.6475 83.5937C18.0641 83.5937 17.5433 83.7161 17.085 83.9609C16.6318 84.2005 16.2725 84.5339 16.0068 84.9609C15.7464 85.3828 15.6162 85.8646 15.6162 86.4062V94H13.7725ZM26.4678 94.25C25.3844 94.25 24.4339 93.9922 23.6162 93.4766C22.8037 92.9609 22.1683 92.2396 21.71 91.3125C21.2568 90.3854 21.0303 89.3021 21.0303 88.0625C21.0303 86.8125 21.2568 85.7214 21.71 84.7891C22.1683 83.8568 22.8037 83.1328 23.6162 82.6172C24.4339 82.1016 25.3844 81.8438 26.4678 81.8438C27.5511 81.8438 28.499 82.1016 29.3115 82.6172C30.1292 83.1328 30.7646 83.8568 31.2178 84.7891C31.6761 85.7214 31.9053 86.8125 31.9053 88.0625C31.9053 89.3021 31.6761 90.3854 31.2178 91.3125C30.7646 92.2396 30.1292 92.9609 29.3115 93.4766C28.499 93.9922 27.5511 94.25 26.4678 94.25ZM26.4678 92.5938C27.2907 92.5938 27.9678 92.3828 28.499 91.9609C29.0303 91.5391 29.4235 90.9844 29.6787 90.2969C29.9339 89.6094 30.0615 88.8646 30.0615 88.0625C30.0615 87.2604 29.9339 86.513 29.6787 85.8203C29.4235 85.1276 29.0303 84.5677 28.499 84.1406C27.9678 83.7135 27.2907 83.5 26.4678 83.5C25.6449 83.5 24.9678 83.7135 24.4365 84.1406C23.9053 84.5677 23.512 85.1276 23.2568 85.8203C23.0016 86.513 22.874 87.2604 22.874 88.0625C22.874 88.8646 23.0016 89.6094 23.2568 90.2969C23.512 90.9844 23.9053 91.5391 24.4365 91.9609C24.9678 92.3828 25.6449 92.5938 26.4678 92.5938ZM34.7197 82H36.5635V94.875C36.5635 95.6146 36.4359 96.2552 36.1807 96.7969C35.9307 97.3385 35.5505 97.7578 35.04 98.0547C34.5348 98.3516 33.8968 98.5 33.126 98.5C33.0635 98.5 33.001 98.5 32.9385 98.5C32.876 98.5 32.8135 98.5 32.751 98.5V96.7812C32.8135 96.7812 32.8708 96.7812 32.9229 96.7812C32.9749 96.7812 33.0322 96.7812 33.0947 96.7812C33.6572 96.7812 34.0687 96.6146 34.3291 96.2813C34.5895 95.9531 34.7197 95.4844 34.7197 94.875V82ZM35.626 80C35.2666 80 34.9567 79.8776 34.6963 79.6328C34.4411 79.388 34.3135 79.0938 34.3135 78.75C34.3135 78.4063 34.4411 78.112 34.6963 77.8672C34.9567 77.6224 35.2666 77.5 35.626 77.5C35.9854 77.5 36.2926 77.6224 36.5479 77.8672C36.8083 78.112 36.9385 78.4063 36.9385 78.75C36.9385 79.0938 36.8083 79.388 36.5479 79.6328C36.2926 79.8776 35.9854 80 35.626 80ZM44.9717 94.25C43.8154 94.25 42.818 93.9948 41.9795 93.4844C41.1462 92.9688 40.5029 92.25 40.0498 91.3281C39.6019 90.401 39.3779 89.3229 39.3779 88.0938C39.3779 86.8646 39.6019 85.7812 40.0498 84.8437C40.5029 83.901 41.1331 83.1667 41.9404 82.6406C42.7529 82.1094 43.7008 81.8438 44.7842 81.8438C45.4092 81.8438 46.0264 81.9479 46.6357 82.1562C47.2451 82.3646 47.7998 82.7031 48.2998 83.1719C48.7998 83.6354 49.1982 84.25 49.4951 85.0156C49.792 85.7812 49.9404 86.724 49.9404 87.8437V88.625H40.6904V87.0312H48.0654C48.0654 86.3542 47.93 85.75 47.6592 85.2187C47.3936 84.6875 47.0133 84.2682 46.5186 83.9609C46.029 83.6536 45.4508 83.5 44.7842 83.5C44.0498 83.5 43.4144 83.6823 42.8779 84.0469C42.3467 84.4062 41.9378 84.875 41.6514 85.4531C41.3649 86.0312 41.2217 86.651 41.2217 87.3125V88.375C41.2217 89.2813 41.3779 90.0495 41.6904 90.6797C42.0081 91.3047 42.4482 91.7812 43.0107 92.1094C43.5732 92.4323 44.2269 92.5938 44.9717 92.5938C45.4561 92.5938 45.8936 92.526 46.2842 92.3906C46.68 92.25 47.0212 92.0417 47.3076 91.7656C47.5941 91.4844 47.8154 91.1354 47.9717 90.7187L49.7529 91.2188C49.5654 91.8229 49.2503 92.3542 48.8076 92.8125C48.3649 93.2656 47.818 93.6198 47.167 93.875C46.516 94.125 45.7842 94.25 44.9717 94.25ZM57.6201 94.25C56.4951 94.25 55.5264 93.9844 54.7139 93.4531C53.9014 92.9219 53.2764 92.1901 52.8389 91.2578C52.4014 90.3255 52.1826 89.2604 52.1826 88.0625C52.1826 86.8437 52.4066 85.7682 52.8545 84.8359C53.3076 83.8984 53.9378 83.1667 54.7451 82.6406C55.5576 82.1094 56.5055 81.8438 57.5889 81.8438C58.4326 81.8438 59.193 82 59.8701 82.3125C60.5472 82.625 61.1019 83.0625 61.5342 83.625C61.9665 84.1875 62.2347 84.8437 62.3389 85.5937H60.4951C60.3545 85.0469 60.042 84.5625 59.5576 84.1406C59.0785 83.7135 58.4326 83.5 57.6201 83.5C56.9014 83.5 56.2712 83.6875 55.7295 84.0625C55.193 84.4323 54.7738 84.9557 54.4717 85.6328C54.1748 86.3047 54.0264 87.0937 54.0264 88C54.0264 88.9271 54.1722 89.7344 54.4639 90.4219C54.7607 91.1094 55.1774 91.6432 55.7139 92.0234C56.2555 92.4036 56.891 92.5938 57.6201 92.5938C58.0993 92.5938 58.5342 92.5104 58.9248 92.3437C59.3154 92.1771 59.6462 91.9375 59.917 91.625C60.1878 91.3125 60.3805 90.9375 60.4951 90.5H62.3389C62.2347 91.2083 61.9769 91.8464 61.5654 92.4141C61.1592 92.9766 60.6201 93.4245 59.9482 93.7578C59.2816 94.0859 58.5055 94.25 57.6201 94.25ZM70.2529 82V83.5625H64.0342V82H70.2529ZM65.8467 79.125H67.6904V90.5625C67.6904 91.0833 67.766 91.474 67.917 91.7344C68.0732 91.9896 68.2712 92.1615 68.5107 92.25C68.7555 92.3333 69.0133 92.375 69.2842 92.375C69.4873 92.375 69.654 92.3646 69.7842 92.3437C69.9144 92.3177 70.0186 92.2969 70.0967 92.2812L70.4717 93.9375C70.3467 93.9844 70.1722 94.0313 69.9482 94.0781C69.7243 94.1302 69.4404 94.1563 69.0967 94.1563C68.5758 94.1563 68.0654 94.0443 67.5654 93.8203C67.0706 93.5964 66.6592 93.2552 66.3311 92.7969C66.0081 92.3385 65.8467 91.7604 65.8467 91.0625V79.125ZM92.3389 83H90.4014C90.2868 82.4427 90.0863 81.9531 89.7998 81.5312C89.5186 81.1094 89.1748 80.7552 88.7686 80.4688C88.3675 80.1771 87.9222 79.9583 87.4326 79.8125C86.943 79.6667 86.4326 79.5937 85.9014 79.5937C84.9326 79.5937 84.055 79.8385 83.2686 80.3281C82.4873 80.8177 81.8649 81.5391 81.4014 82.4922C80.943 83.4453 80.7139 84.6146 80.7139 86C80.7139 87.3854 80.943 88.5547 81.4014 89.5078C81.8649 90.4609 82.4873 91.1823 83.2686 91.6719C84.055 92.1615 84.9326 92.4062 85.9014 92.4062C86.4326 92.4062 86.943 92.3333 87.4326 92.1875C87.9222 92.0417 88.3675 91.8255 88.7686 91.5391C89.1748 91.2474 89.5186 90.8906 89.7998 90.4687C90.0863 90.0417 90.2868 89.5521 90.4014 89H92.3389C92.193 89.8177 91.9274 90.5495 91.542 91.1953C91.1566 91.8411 90.6774 92.3906 90.1045 92.8437C89.5316 93.2917 88.8883 93.6328 88.1748 93.8672C87.4665 94.1016 86.7087 94.2187 85.9014 94.2187C84.5368 94.2187 83.3232 93.8854 82.2607 93.2188C81.1982 92.5521 80.3623 91.6042 79.7529 90.375C79.1436 89.1458 78.8389 87.6875 78.8389 86C78.8389 84.3125 79.1436 82.8542 79.7529 81.625C80.3623 80.3958 81.1982 79.4479 82.2607 78.7812C83.3232 78.1146 84.5368 77.7812 85.9014 77.7812C86.7087 77.7812 87.4665 77.8984 88.1748 78.1328C88.8883 78.3672 89.5316 78.7109 90.1045 79.1641C90.6774 79.612 91.1566 80.1589 91.542 80.8047C91.9274 81.4453 92.193 82.1771 92.3389 83ZM100.095 94.25C99.0114 94.25 98.0609 93.9922 97.2432 93.4766C96.4307 92.9609 95.7952 92.2396 95.3369 91.3125C94.8838 90.3854 94.6572 89.3021 94.6572 88.0625C94.6572 86.8125 94.8838 85.7214 95.3369 84.7891C95.7952 83.8568 96.4307 83.1328 97.2432 82.6172C98.0609 82.1016 99.0114 81.8438 100.095 81.8438C101.178 81.8438 102.126 82.1016 102.938 82.6172C103.756 83.1328 104.392 83.8568 104.845 84.7891C105.303 85.7214 105.532 86.8125 105.532 88.0625C105.532 89.3021 105.303 90.3854 104.845 91.3125C104.392 92.2396 103.756 92.9609 102.938 93.4766C102.126 93.9922 101.178 94.25 100.095 94.25ZM100.095 92.5938C100.918 92.5938 101.595 92.3828 102.126 91.9609C102.657 91.5391 103.05 90.9844 103.306 90.2969C103.561 89.6094 103.688 88.8646 103.688 88.0625C103.688 87.2604 103.561 86.513 103.306 85.8203C103.05 85.1276 102.657 84.5677 102.126 84.1406C101.595 83.7135 100.918 83.5 100.095 83.5C99.2718 83.5 98.5947 83.7135 98.0635 84.1406C97.5322 84.5677 97.139 85.1276 96.8838 85.8203C96.6286 86.513 96.501 87.2604 96.501 88.0625C96.501 88.8646 96.6286 89.6094 96.8838 90.2969C97.139 90.9844 97.5322 91.5391 98.0635 91.9609C98.5947 92.3828 99.2718 92.5938 100.095 92.5938ZM108.347 94V82H110.128V83.875H110.284C110.534 83.2344 110.938 82.737 111.495 82.3828C112.052 82.0234 112.722 81.8438 113.503 81.8438C114.295 81.8438 114.953 82.0234 115.479 82.3828C116.011 82.737 116.425 83.2344 116.722 83.875H116.847C117.154 83.2552 117.615 82.763 118.229 82.3984C118.844 82.0286 119.581 81.8438 120.44 81.8438C121.513 81.8438 122.391 82.1797 123.073 82.8516C123.756 83.5182 124.097 84.5573 124.097 85.9687V94H122.253V85.9687C122.253 85.0833 122.011 84.4505 121.526 84.0703C121.042 83.6901 120.472 83.5 119.815 83.5C118.972 83.5 118.318 83.7552 117.854 84.2656C117.391 84.7708 117.159 85.4115 117.159 86.1875V94H115.284V85.7812C115.284 85.099 115.063 84.5495 114.62 84.1328C114.177 83.7109 113.607 83.5 112.909 83.5C112.43 83.5 111.982 83.6276 111.565 83.8828C111.154 84.138 110.821 84.4922 110.565 84.9453C110.315 85.3932 110.19 85.9115 110.19 86.5V94H108.347ZM127.468 98.5V82H129.249V83.9062H129.468C129.603 83.6979 129.791 83.4323 130.03 83.1094C130.275 82.7812 130.624 82.4896 131.077 82.2344C131.535 81.974 132.155 81.8438 132.937 81.8438C133.947 81.8438 134.838 82.0964 135.608 82.6016C136.379 83.1068 136.981 83.8229 137.413 84.75C137.845 85.6771 138.062 86.7708 138.062 88.0313C138.062 89.3021 137.845 90.4036 137.413 91.3359C136.981 92.263 136.382 92.9818 135.616 93.4922C134.851 93.9974 133.968 94.25 132.968 94.25C132.197 94.25 131.58 94.1224 131.116 93.8672C130.653 93.6068 130.296 93.3125 130.046 92.9844C129.796 92.651 129.603 92.375 129.468 92.1562H129.312V98.5H127.468ZM129.28 88C129.28 88.9062 129.413 89.7057 129.679 90.3984C129.944 91.0859 130.332 91.625 130.843 92.0156C131.353 92.401 131.978 92.5938 132.718 92.5938C133.489 92.5938 134.132 92.3906 134.647 91.9844C135.168 91.5729 135.559 91.0208 135.819 90.3281C136.085 89.6302 136.218 88.8542 136.218 88C136.218 87.1562 136.088 86.3958 135.827 85.7187C135.572 85.0365 135.184 84.4974 134.663 84.1016C134.147 83.7005 133.499 83.5 132.718 83.5C131.968 83.5 131.338 83.6901 130.827 84.0703C130.317 84.4453 129.931 84.9714 129.671 85.6484C129.41 86.3203 129.28 87.1042 129.28 88ZM142.718 78V94H140.874V78H142.718ZM151.126 94.25C149.97 94.25 148.972 93.9948 148.134 93.4844C147.3 92.9688 146.657 92.25 146.204 91.3281C145.756 90.401 145.532 89.3229 145.532 88.0938C145.532 86.8646 145.756 85.7812 146.204 84.8437C146.657 83.901 147.287 83.1667 148.095 82.6406C148.907 82.1094 149.855 81.8438 150.938 81.8438C151.563 81.8438 152.181 81.9479 152.79 82.1562C153.399 82.3646 153.954 82.7031 154.454 83.1719C154.954 83.6354 155.353 84.25 155.649 85.0156C155.946 85.7812 156.095 86.724 156.095 87.8437V88.625H146.845V87.0312H154.22C154.22 86.3542 154.084 85.75 153.813 85.2187C153.548 84.6875 153.168 84.2682 152.673 83.9609C152.183 83.6536 151.605 83.5 150.938 83.5C150.204 83.5 149.569 83.6823 149.032 84.0469C148.501 84.4062 148.092 84.875 147.806 85.4531C147.519 86.0312 147.376 86.651 147.376 87.3125V88.375C147.376 89.2813 147.532 90.0495 147.845 90.6797C148.162 91.3047 148.603 91.7812 149.165 92.1094C149.728 92.4323 150.381 92.5938 151.126 92.5938C151.61 92.5938 152.048 92.526 152.438 92.3906C152.834 92.25 153.175 92.0417 153.462 91.7656C153.748 91.4844 153.97 91.1354 154.126 90.7187L155.907 91.2188C155.72 91.8229 155.405 92.3542 154.962 92.8125C154.519 93.2656 153.972 93.6198 153.321 93.875C152.67 94.125 151.938 94.25 151.126 94.25ZM164.118 82V83.5625H157.899V82H164.118ZM159.712 79.125H161.556V90.5625C161.556 91.0833 161.631 91.474 161.782 91.7344C161.938 91.9896 162.136 92.1615 162.376 92.25C162.621 92.3333 162.879 92.375 163.149 92.375C163.353 92.375 163.519 92.3646 163.649 92.3437C163.78 92.3177 163.884 92.2969 163.962 92.2812L164.337 93.9375C164.212 93.9844 164.037 94.0313 163.813 94.0781C163.59 94.1302 163.306 94.1563 162.962 94.1563C162.441 94.1563 161.931 94.0443 161.431 93.8203C160.936 93.5964 160.524 93.2552 160.196 92.7969C159.873 92.3385 159.712 91.7604 159.712 91.0625V79.125ZM171.794 94.25C170.638 94.25 169.64 93.9948 168.802 93.4844C167.968 92.9688 167.325 92.25 166.872 91.3281C166.424 90.401 166.2 89.3229 166.2 88.0938C166.2 86.8646 166.424 85.7812 166.872 84.8437C167.325 83.901 167.955 83.1667 168.763 82.6406C169.575 82.1094 170.523 81.8438 171.606 81.8438C172.231 81.8438 172.849 81.9479 173.458 82.1562C174.067 82.3646 174.622 82.7031 175.122 83.1719C175.622 83.6354 176.021 84.25 176.317 85.0156C176.614 85.7812 176.763 86.724 176.763 87.8437V88.625H167.513V87.0312H174.888C174.888 86.3542 174.752 85.75 174.481 85.2187C174.216 84.6875 173.836 84.2682 173.341 83.9609C172.851 83.6536 172.273 83.5 171.606 83.5C170.872 83.5 170.237 83.6823 169.7 84.0469C169.169 84.4062 168.76 84.875 168.474 85.4531C168.187 86.0312 168.044 86.651 168.044 87.3125V88.375C168.044 89.2813 168.2 90.0495 168.513 90.6797C168.83 91.3047 169.271 91.7812 169.833 92.1094C170.396 92.4323 171.049 92.5938 171.794 92.5938C172.278 92.5938 172.716 92.526 173.106 92.3906C173.502 92.25 173.843 92.0417 174.13 91.7656C174.416 91.4844 174.638 91.1354 174.794 90.7187L176.575 91.2188C176.388 91.8229 176.073 92.3542 175.63 92.8125C175.187 93.2656 174.64 93.6198 173.989 93.875C173.338 94.125 172.606 94.25 171.794 94.25Z" fill="#545454"/>
</svg>
