<svg width="169" height="95" viewBox="0 0 169 95" fill="none" xmlns="http://www.w3.org/2000/svg">
<path d="M18.5112 52.696C16.4231 52.6629 14.3351 52.2652 12.247 51.5028C10.1589 50.7405 8.25314 49.4562 6.52965 47.6499C4.80617 45.8269 3.42241 43.366 2.37837 40.267C1.33434 37.1515 0.812322 33.2405 0.812322 28.5341C0.812322 24.0265 1.23491 20.0327 2.08008 16.5526C2.92525 13.0559 4.15157 10.1143 5.75906 7.72798C7.36654 5.32505 9.30546 3.50213 11.5758 2.25923C13.8627 1.01633 16.4397 0.394884 19.3066 0.394884C22.157 0.394884 24.6925 0.966618 26.9132 2.11009C29.1504 3.23698 30.9733 4.81131 32.3819 6.8331C33.7905 8.85488 34.702 11.1832 35.1163 13.8182H29.051C28.4875 11.5312 27.3938 9.63376 25.7697 8.12571C24.1457 6.61766 21.9913 5.86363 19.3066 5.86363C15.3625 5.86363 12.2553 7.57883 9.98491 11.0092C7.73112 14.4396 6.59594 19.2538 6.57937 25.4517H6.9771C7.90513 24.0431 9.00716 22.8416 10.2832 21.8473C11.5758 20.8364 13.001 20.0575 14.5588 19.5107C16.1165 18.9638 17.7654 18.6903 19.5055 18.6903C22.4222 18.6903 25.0903 19.4195 27.5098 20.8778C29.9293 22.3196 31.8682 24.3165 33.3265 26.8686C34.7849 29.4041 35.514 32.3125 35.514 35.5938C35.514 38.7424 34.8097 41.6259 33.4011 44.2443C31.9925 46.8461 30.0121 48.9176 27.4601 50.4588C24.9245 51.9834 21.9416 52.7292 18.5112 52.696ZM18.5112 47.2273C20.5993 47.2273 22.4719 46.7053 24.1291 45.6612C25.8029 44.6172 27.1203 43.2169 28.0815 41.4602C29.0592 39.7036 29.5481 37.7481 29.5481 35.5938C29.5481 33.4891 29.0758 31.575 28.1312 29.8516C27.2032 28.1115 25.9189 26.7277 24.2782 25.7003C22.6542 24.6728 20.7981 24.1591 18.7101 24.1591C17.1357 24.1591 15.6691 24.474 14.3102 25.1037C12.9513 25.7169 11.7581 26.562 10.7306 27.6392C9.71976 28.7164 8.9243 29.951 8.34428 31.343C7.76426 32.7185 7.47425 34.1686 7.47425 35.6932C7.47425 37.715 7.94656 39.6042 8.89116 41.3608C9.85233 43.1174 11.1615 44.5343 12.8187 45.6115C14.4925 46.6887 16.39 47.2273 18.5112 47.2273ZM61.8945 52.696C58.1493 52.696 54.9592 51.6768 52.3242 49.6385C49.6893 47.5836 47.6758 44.6089 46.2837 40.7145C44.8917 36.8035 44.1957 32.0805 44.1957 26.5455C44.1957 21.0436 44.8917 16.3454 46.2837 12.451C47.6924 8.54001 49.7141 5.55705 52.3491 3.50213C55.0006 1.43063 58.1824 0.394884 61.8945 0.394884C65.6067 0.394884 68.7802 1.43063 71.4151 3.50213C74.0666 5.55705 76.0884 8.54001 77.4805 12.451C78.8891 16.3454 79.5934 21.0436 79.5934 26.5455C79.5934 32.0805 78.8974 36.8035 77.5053 40.7145C76.1133 44.6089 74.0998 47.5836 71.4648 49.6385C68.8299 51.6768 65.6398 52.696 61.8945 52.696ZM61.8945 47.2273C65.6067 47.2273 68.4902 45.4375 70.5451 41.858C72.6 38.2784 73.6275 33.1742 73.6275 26.5455C73.6275 22.1373 73.1552 18.3838 72.2106 15.2848C71.2826 12.1858 69.9402 9.82434 68.1836 8.20028C66.4435 6.57623 64.3472 5.7642 61.8945 5.7642C58.2156 5.7642 55.3403 7.57883 53.2688 11.2081C51.1973 14.8208 50.1616 19.9332 50.1616 26.5455C50.1616 30.9536 50.6256 34.6989 51.5536 37.7812C52.4817 40.8636 53.8157 43.2086 55.5558 44.8161C57.3124 46.4235 59.4253 47.2273 61.8945 47.2273ZM105.645 52.696C101.899 52.696 98.7092 51.6768 96.0742 49.6385C93.4393 47.5836 91.4258 44.6089 90.0337 40.7145C88.6417 36.8035 87.9457 32.0805 87.9457 26.5455C87.9457 21.0436 88.6417 16.3454 90.0337 12.451C91.4424 8.54001 93.4641 5.55705 96.0991 3.50213C98.7506 1.43063 101.932 0.394884 105.645 0.394884C109.357 0.394884 112.53 1.43063 115.165 3.50213C117.817 5.55705 119.838 8.54001 121.23 12.451C122.639 16.3454 123.343 21.0436 123.343 26.5455C123.343 32.0805 122.647 36.8035 121.255 40.7145C119.863 44.6089 117.85 47.5836 115.215 49.6385C112.58 51.6768 109.39 52.696 105.645 52.696ZM105.645 47.2273C109.357 47.2273 112.24 45.4375 114.295 41.858C116.35 38.2784 117.377 33.1742 117.377 26.5455C117.377 22.1373 116.905 18.3838 115.961 15.2848C115.033 12.1858 113.69 9.82434 111.934 8.20028C110.194 6.57623 108.097 5.7642 105.645 5.7642C101.966 5.7642 99.0903 7.57883 97.0188 11.2081C94.9473 14.8208 93.9116 19.9332 93.9116 26.5455C93.9116 30.9536 94.3756 34.6989 95.3036 37.7812C96.2317 40.8636 97.5657 43.2086 99.3058 44.8161C101.062 46.4235 103.175 47.2273 105.645 47.2273ZM147.804 43.0511V10.2386H153.372V43.0511H147.804ZM134.181 29.429V23.8608H166.994V29.429H134.181ZM11.5225 82C11.4287 81.2083 11.0485 80.5938 10.3818 80.1562C9.71517 79.7187 8.89746 79.5 7.92871 79.5C7.22038 79.5 6.60059 79.6146 6.06934 79.8437C5.54329 80.0729 5.13184 80.388 4.83496 80.7891C4.54329 81.1901 4.39746 81.6458 4.39746 82.1562C4.39746 82.5833 4.49902 82.9505 4.70215 83.2578C4.91048 83.5599 5.17611 83.8125 5.49902 84.0156C5.82194 84.2135 6.16048 84.3776 6.51465 84.5078C6.86882 84.6328 7.19434 84.7344 7.49121 84.8125L9.11621 85.25C9.53288 85.3594 9.99642 85.5104 10.5068 85.7031C11.0225 85.8958 11.5146 86.1589 11.9834 86.4922C12.4574 86.8203 12.848 87.2422 13.1553 87.7578C13.4626 88.2734 13.6162 88.9062 13.6162 89.6562C13.6162 90.5208 13.3896 91.3021 12.9365 92C12.4886 92.6979 11.8324 93.2526 10.9678 93.6641C10.1084 94.0755 9.06413 94.2813 7.83496 94.2813C6.68913 94.2813 5.69694 94.0964 4.8584 93.7266C4.02507 93.3568 3.36882 92.8411 2.88965 92.1797C2.41569 91.5182 2.14746 90.75 2.08496 89.875H4.08496C4.13704 90.4792 4.34017 90.9792 4.69434 91.375C5.05371 91.7656 5.50684 92.0573 6.05371 92.25C6.60579 92.4375 7.19954 92.5312 7.83496 92.5312C8.57454 92.5312 9.23861 92.4115 9.82715 92.1719C10.4157 91.9271 10.8818 91.5885 11.2256 91.1562C11.5693 90.7187 11.7412 90.2083 11.7412 89.625C11.7412 89.0937 11.5928 88.6615 11.2959 88.3281C10.999 87.9948 10.6084 87.724 10.124 87.5156C9.63965 87.3073 9.11621 87.125 8.55371 86.9687L6.58496 86.4062C5.33496 86.0469 4.34538 85.5339 3.61621 84.8672C2.88704 84.2005 2.52246 83.3281 2.52246 82.25C2.52246 81.3542 2.76465 80.5729 3.24902 79.9062C3.73861 79.2344 4.39486 78.7135 5.21777 78.3437C6.0459 77.9687 6.97038 77.7812 7.99121 77.7812C9.02246 77.7812 9.93913 77.9661 10.7412 78.3359C11.5433 78.7005 12.1787 79.2005 12.6475 79.8359C13.1214 80.4714 13.3714 81.1927 13.3975 82H11.5225ZM20.083 94.2813C19.3226 94.2813 18.6325 94.138 18.0127 93.8516C17.3929 93.5599 16.9007 93.1406 16.5361 92.5938C16.1715 92.0417 15.9893 91.375 15.9893 90.5937C15.9893 89.9062 16.1247 89.349 16.3955 88.9219C16.6663 88.4896 17.0283 88.151 17.4814 87.9062C17.9346 87.6615 18.4346 87.4792 18.9814 87.3594C19.5335 87.2344 20.0882 87.1354 20.6455 87.0625C21.3747 86.9687 21.9658 86.8984 22.4189 86.8516C22.8773 86.7995 23.2106 86.7135 23.4189 86.5937C23.6325 86.474 23.7393 86.2656 23.7393 85.9687V85.9062C23.7393 85.1354 23.5283 84.5365 23.1064 84.1094C22.6898 83.6823 22.057 83.4687 21.208 83.4687C20.3278 83.4687 19.6377 83.6615 19.1377 84.0469C18.6377 84.4323 18.2861 84.8437 18.083 85.2812L16.333 84.6562C16.6455 83.9271 17.0622 83.3594 17.583 82.9531C18.109 82.5417 18.682 82.2552 19.3018 82.0937C19.9268 81.9271 20.5413 81.8438 21.1455 81.8438C21.5309 81.8438 21.9736 81.8906 22.4736 81.9844C22.9788 82.0729 23.4658 82.2578 23.9346 82.5391C24.4085 82.8203 24.8018 83.2448 25.1143 83.8125C25.4268 84.3802 25.583 85.1406 25.583 86.0938V94H23.7393V92.375H23.6455C23.5205 92.6354 23.3122 92.9141 23.0205 93.2109C22.7288 93.5078 22.3408 93.7604 21.8564 93.9687C21.3721 94.1771 20.7809 94.2813 20.083 94.2813ZM20.3643 92.625C21.0934 92.625 21.708 92.4818 22.208 92.1953C22.7132 91.9089 23.0934 91.5391 23.3486 91.0859C23.609 90.6328 23.7393 90.1562 23.7393 89.6562V87.9687C23.6611 88.0625 23.4893 88.1484 23.2236 88.2266C22.9632 88.2995 22.6611 88.3646 22.3174 88.4219C21.9788 88.474 21.6481 88.5208 21.3252 88.5625C21.0075 88.599 20.7497 88.6302 20.5518 88.6562C20.0726 88.7187 19.6247 88.8203 19.208 88.9609C18.7965 89.0964 18.4632 89.3021 18.208 89.5781C17.958 89.849 17.833 90.2187 17.833 90.6875C17.833 91.3281 18.07 91.8125 18.5439 92.1406C19.0231 92.4635 19.6299 92.625 20.3643 92.625ZM34.167 82V83.5625H27.9482V82H34.167ZM29.7607 79.125H31.6045V90.5625C31.6045 91.0833 31.68 91.474 31.8311 91.7344C31.9873 91.9896 32.1852 92.1615 32.4248 92.25C32.6696 92.3333 32.9274 92.375 33.1982 92.375C33.4014 92.375 33.568 92.3646 33.6982 92.3437C33.8285 92.3177 33.9326 92.2969 34.0107 92.2812L34.3857 93.9375C34.2607 93.9844 34.0863 94.0313 33.8623 94.0781C33.6383 94.1302 33.3545 94.1563 33.0107 94.1563C32.4899 94.1563 31.9795 94.0443 31.4795 93.8203C30.9847 93.5964 30.5732 93.2552 30.2451 92.7969C29.9222 92.3385 29.7607 91.7604 29.7607 91.0625V79.125ZM36.9404 94V82H38.7842V94H36.9404ZM37.8779 80C37.5186 80 37.2087 79.8776 36.9482 79.6328C36.693 79.388 36.5654 79.0938 36.5654 78.75C36.5654 78.4063 36.693 78.112 36.9482 77.8672C37.2087 77.6224 37.5186 77.5 37.8779 77.5C38.2373 77.5 38.5446 77.6224 38.7998 77.8672C39.0602 78.112 39.1904 78.4063 39.1904 78.75C39.1904 79.0938 39.0602 79.388 38.7998 79.6328C38.5446 79.8776 38.2373 80 37.8779 80ZM50.6611 84.6875L49.0049 85.1562C48.9007 84.8802 48.7471 84.612 48.5439 84.3516C48.346 84.0859 48.0752 83.8672 47.7314 83.6953C47.3877 83.5234 46.9476 83.4375 46.4111 83.4375C45.6768 83.4375 45.0648 83.6068 44.5752 83.9453C44.0908 84.2786 43.8486 84.7031 43.8486 85.2187C43.8486 85.6771 44.0153 86.0391 44.3486 86.3047C44.682 86.5703 45.2028 86.7917 45.9111 86.9687L47.6924 87.4063C48.7653 87.6667 49.5648 88.0651 50.0908 88.6016C50.6169 89.1328 50.8799 89.8177 50.8799 90.6562C50.8799 91.3437 50.682 91.9583 50.2861 92.5C49.8955 93.0417 49.3486 93.4688 48.6455 93.7813C47.9424 94.0938 47.1247 94.25 46.1924 94.25C44.9684 94.25 43.9554 93.9844 43.1533 93.4531C42.3512 92.9219 41.8434 92.1458 41.6299 91.125L43.3799 90.6875C43.5465 91.3333 43.8617 91.8177 44.3252 92.1406C44.7939 92.4635 45.4059 92.625 46.1611 92.625C47.0205 92.625 47.7028 92.4427 48.208 92.0781C48.7184 91.7083 48.9736 91.2656 48.9736 90.75C48.9736 90.3333 48.8278 89.9844 48.5361 89.7031C48.2445 89.4167 47.7965 89.2031 47.1924 89.0625L45.1924 88.5937C44.0934 88.3333 43.2861 87.9297 42.7705 87.3828C42.2601 86.8307 42.0049 86.1406 42.0049 85.3125C42.0049 84.6354 42.195 84.0365 42.5752 83.5156C42.9606 82.9948 43.484 82.5859 44.1455 82.2891C44.8122 81.9922 45.5674 81.8438 46.4111 81.8438C47.5986 81.8438 48.5309 82.1042 49.208 82.625C49.8903 83.1458 50.3747 83.8333 50.6611 84.6875ZM58.999 82V83.5625H52.5303V82H58.999ZM54.4678 94V80.3438C54.4678 79.6562 54.6292 79.0833 54.9521 78.625C55.2751 78.1667 55.6943 77.8229 56.21 77.5937C56.7256 77.3646 57.2699 77.25 57.8428 77.25C58.2959 77.25 58.6657 77.2865 58.9521 77.3594C59.2386 77.4323 59.4521 77.5 59.5928 77.5625L59.0615 79.1562C58.9678 79.125 58.8376 79.0859 58.6709 79.0391C58.5094 78.9922 58.2959 78.9687 58.0303 78.9687C57.4209 78.9687 56.9808 79.1224 56.71 79.4297C56.4443 79.737 56.3115 80.1875 56.3115 80.7812V94H54.4678ZM61.583 94V82H63.4268V94H61.583ZM62.5205 80C62.1611 80 61.8512 79.8776 61.5908 79.6328C61.3356 79.388 61.208 79.0938 61.208 78.75C61.208 78.4063 61.3356 78.112 61.5908 77.8672C61.8512 77.6224 62.1611 77.5 62.5205 77.5C62.8799 77.5 63.1872 77.6224 63.4424 77.8672C63.7028 78.112 63.833 78.4063 63.833 78.75C63.833 79.0938 63.7028 79.388 63.4424 79.6328C63.1872 79.8776 62.8799 80 62.5205 80ZM71.835 94.25C70.6787 94.25 69.6813 93.9948 68.8428 93.4844C68.0094 92.9688 67.3662 92.25 66.9131 91.3281C66.4652 90.401 66.2412 89.3229 66.2412 88.0938C66.2412 86.8646 66.4652 85.7812 66.9131 84.8437C67.3662 83.901 67.9964 83.1667 68.8037 82.6406C69.6162 82.1094 70.5641 81.8438 71.6475 81.8438C72.2725 81.8438 72.8896 81.9479 73.499 82.1562C74.1084 82.3646 74.6631 82.7031 75.1631 83.1719C75.6631 83.6354 76.0615 84.25 76.3584 85.0156C76.6553 85.7812 76.8037 86.724 76.8037 87.8437V88.625H67.5537V87.0312H74.9287C74.9287 86.3542 74.7933 85.75 74.5225 85.2187C74.2568 84.6875 73.8766 84.2682 73.3818 83.9609C72.8923 83.6536 72.3141 83.5 71.6475 83.5C70.9131 83.5 70.2777 83.6823 69.7412 84.0469C69.21 84.4062 68.8011 84.875 68.5146 85.4531C68.2282 86.0312 68.085 86.651 68.085 87.3125V88.375C68.085 89.2813 68.2412 90.0495 68.5537 90.6797C68.8714 91.3047 69.3115 91.7812 69.874 92.1094C70.4365 92.4323 71.0902 92.5938 71.835 92.5938C72.3193 92.5938 72.7568 92.526 73.1475 92.3906C73.5433 92.25 73.8844 92.0417 74.1709 91.7656C74.4574 91.4844 74.6787 91.1354 74.835 90.7187L76.6162 91.2188C76.4287 91.8229 76.1136 92.3542 75.6709 92.8125C75.2282 93.2656 74.6813 93.6198 74.0303 93.875C73.3792 94.125 72.6475 94.25 71.835 94.25ZM84.1396 94.25C83.1396 94.25 82.2568 93.9974 81.4912 93.4922C80.7256 92.9818 80.1266 92.263 79.6943 91.3359C79.262 90.4036 79.0459 89.3021 79.0459 88.0313C79.0459 86.7708 79.262 85.6771 79.6943 84.75C80.1266 83.8229 80.7282 83.1068 81.499 82.6016C82.2699 82.0964 83.1605 81.8438 84.1709 81.8438C84.9521 81.8438 85.5693 81.974 86.0225 82.2344C86.4808 82.4896 86.8298 82.7812 87.0693 83.1094C87.3141 83.4323 87.5042 83.6979 87.6396 83.9062H87.7959V78H89.6396V94H87.8584V92.1562H87.6396C87.5042 92.375 87.3115 92.651 87.0615 92.9844C86.8115 93.3125 86.4548 93.6068 85.9912 93.8672C85.5277 94.1224 84.9105 94.25 84.1396 94.25ZM84.3896 92.5938C85.1292 92.5938 85.7542 92.401 86.2646 92.0156C86.7751 91.625 87.1631 91.0859 87.4287 90.3984C87.6943 89.7057 87.8271 88.9062 87.8271 88C87.8271 87.1042 87.6969 86.3203 87.4365 85.6484C87.1761 84.9714 86.7907 84.4453 86.2803 84.0703C85.7699 83.6901 85.1396 83.5 84.3896 83.5C83.6084 83.5 82.9574 83.7005 82.4365 84.1016C81.9209 84.4974 81.5329 85.0365 81.2725 85.7187C81.0173 86.3958 80.8896 87.1562 80.8896 88C80.8896 88.8542 81.0199 89.6302 81.2803 90.3281C81.5459 91.0208 81.9365 91.5729 82.4521 91.9844C82.973 92.3906 83.6188 92.5938 84.3896 92.5938ZM112.585 83H110.647C110.533 82.4427 110.332 81.9531 110.046 81.5312C109.765 81.1094 109.421 80.7552 109.015 80.4688C108.614 80.1771 108.168 79.9583 107.679 79.8125C107.189 79.6667 106.679 79.5937 106.147 79.5937C105.179 79.5937 104.301 79.8385 103.515 80.3281C102.733 80.8177 102.111 81.5391 101.647 82.4922C101.189 83.4453 100.96 84.6146 100.96 86C100.96 87.3854 101.189 88.5547 101.647 89.5078C102.111 90.4609 102.733 91.1823 103.515 91.6719C104.301 92.1615 105.179 92.4062 106.147 92.4062C106.679 92.4062 107.189 92.3333 107.679 92.1875C108.168 92.0417 108.614 91.8255 109.015 91.5391C109.421 91.2474 109.765 90.8906 110.046 90.4687C110.332 90.0417 110.533 89.5521 110.647 89H112.585C112.439 89.8177 112.174 90.5495 111.788 91.1953C111.403 91.8411 110.924 92.3906 110.351 92.8437C109.778 93.2917 109.134 93.6328 108.421 93.8672C107.713 94.1016 106.955 94.2187 106.147 94.2187C104.783 94.2187 103.569 93.8854 102.507 93.2188C101.444 92.5521 100.608 91.6042 99.999 90.375C99.3896 89.1458 99.085 87.6875 99.085 86C99.085 84.3125 99.3896 82.8542 99.999 81.625C100.608 80.3958 101.444 79.4479 102.507 78.7812C103.569 78.1146 104.783 77.7812 106.147 77.7812C106.955 77.7812 107.713 77.8984 108.421 78.1328C109.134 78.3672 109.778 78.7109 110.351 79.1641C110.924 79.612 111.403 80.1589 111.788 80.8047C112.174 81.4453 112.439 82.1771 112.585 83ZM117.31 78V94H115.466V78H117.31ZM120.687 94V82H122.53V94H120.687ZM121.624 80C121.265 80 120.955 79.8776 120.694 79.6328C120.439 79.388 120.312 79.0938 120.312 78.75C120.312 78.4063 120.439 78.112 120.694 77.8672C120.955 77.6224 121.265 77.5 121.624 77.5C121.983 77.5 122.291 77.6224 122.546 77.8672C122.806 78.112 122.937 78.4063 122.937 78.75C122.937 79.0938 122.806 79.388 122.546 79.6328C122.291 79.8776 121.983 80 121.624 80ZM130.938 94.25C129.782 94.25 128.785 93.9948 127.946 93.4844C127.113 92.9688 126.47 92.25 126.017 91.3281C125.569 90.401 125.345 89.3229 125.345 88.0938C125.345 86.8646 125.569 85.7812 126.017 84.8437C126.47 83.901 127.1 83.1667 127.907 82.6406C128.72 82.1094 129.668 81.8438 130.751 81.8438C131.376 81.8438 131.993 81.9479 132.603 82.1562C133.212 82.3646 133.767 82.7031 134.267 83.1719C134.767 83.6354 135.165 84.25 135.462 85.0156C135.759 85.7812 135.907 86.724 135.907 87.8437V88.625H126.657V87.0312H134.032C134.032 86.3542 133.897 85.75 133.626 85.2187C133.36 84.6875 132.98 84.2682 132.485 83.9609C131.996 83.6536 131.418 83.5 130.751 83.5C130.017 83.5 129.381 83.6823 128.845 84.0469C128.313 84.4062 127.905 84.875 127.618 85.4531C127.332 86.0312 127.188 86.651 127.188 87.3125V88.375C127.188 89.2813 127.345 90.0495 127.657 90.6797C127.975 91.3047 128.415 91.7812 128.978 92.1094C129.54 92.4323 130.194 92.5938 130.938 92.5938C131.423 92.5938 131.86 92.526 132.251 92.3906C132.647 92.25 132.988 92.0417 133.274 91.7656C133.561 91.4844 133.782 91.1354 133.938 90.7187L135.72 91.2188C135.532 91.8229 135.217 92.3542 134.774 92.8125C134.332 93.2656 133.785 93.6198 133.134 93.875C132.483 94.125 131.751 94.25 130.938 94.25ZM140.556 86.7812V94H138.712V82H140.493V83.875H140.649C140.931 83.2656 141.358 82.776 141.931 82.4063C142.504 82.0313 143.243 81.8438 144.149 81.8438C144.962 81.8438 145.673 82.0104 146.282 82.3437C146.892 82.6719 147.366 83.1719 147.704 83.8437C148.043 84.5104 148.212 85.3542 148.212 86.375V94H146.368V86.5C146.368 85.5573 146.123 84.8229 145.634 84.2969C145.144 83.7656 144.472 83.5 143.618 83.5C143.03 83.5 142.504 83.6276 142.04 83.8828C141.582 84.138 141.22 84.5104 140.954 85C140.688 85.4896 140.556 86.0833 140.556 86.7812ZM156.8 82V83.5625H150.581V82H156.8ZM152.394 79.125H154.237V90.5625C154.237 91.0833 154.313 91.474 154.464 91.7344C154.62 91.9896 154.818 92.1615 155.058 92.25C155.302 92.3333 155.56 92.375 155.831 92.375C156.034 92.375 156.201 92.3646 156.331 92.3437C156.461 92.3177 156.565 92.2969 156.644 92.2812L157.019 93.9375C156.894 93.9844 156.719 94.0313 156.495 94.0781C156.271 94.1302 155.987 94.1563 155.644 94.1563C155.123 94.1563 154.612 94.0443 154.112 93.8203C153.618 93.5964 153.206 93.2552 152.878 92.7969C152.555 92.3385 152.394 91.7604 152.394 91.0625V79.125ZM167.858 84.6875L166.202 85.1562C166.098 84.8802 165.944 84.612 165.741 84.3516C165.543 84.0859 165.272 83.8672 164.929 83.6953C164.585 83.5234 164.145 83.4375 163.608 83.4375C162.874 83.4375 162.262 83.6068 161.772 83.9453C161.288 84.2786 161.046 84.7031 161.046 85.2187C161.046 85.6771 161.213 86.0391 161.546 86.3047C161.879 86.5703 162.4 86.7917 163.108 86.9687L164.89 87.4063C165.963 87.6667 166.762 88.0651 167.288 88.6016C167.814 89.1328 168.077 89.8177 168.077 90.6562C168.077 91.3437 167.879 91.9583 167.483 92.5C167.093 93.0417 166.546 93.4688 165.843 93.7813C165.14 94.0938 164.322 94.25 163.39 94.25C162.166 94.25 161.153 93.9844 160.351 93.4531C159.549 92.9219 159.041 92.1458 158.827 91.125L160.577 90.6875C160.744 91.3333 161.059 91.8177 161.522 92.1406C161.991 92.4635 162.603 92.625 163.358 92.625C164.218 92.625 164.9 92.4427 165.405 92.0781C165.916 91.7083 166.171 91.2656 166.171 90.75C166.171 90.3333 166.025 89.9844 165.733 89.7031C165.442 89.4167 164.994 89.2031 164.39 89.0625L162.39 88.5937C161.291 88.3333 160.483 87.9297 159.968 87.3828C159.457 86.8307 159.202 86.1406 159.202 85.3125C159.202 84.6354 159.392 84.0365 159.772 83.5156C160.158 82.9948 160.681 82.5859 161.343 82.2891C162.009 81.9922 162.765 81.8438 163.608 81.8438C164.796 81.8438 165.728 82.1042 166.405 82.625C167.088 83.1458 167.572 83.8333 167.858 84.6875Z" fill="#545454"/>
</svg>
